<?xml version="1.0" encoding="UTF-8"?>
<svg width="14px" height="14px" viewBox="0 0 14 14" version="1.1" xmlns="http://www.w3.org/2000/svg" xmlns:xlink="http://www.w3.org/1999/xlink">
    <!-- Generator: Sketch 58 (84663) - https://sketch.com -->
    <title>14 x 14 / dark outline</title>
    <desc>Created with Sketch.</desc>
    <defs>
        <rect id="path-1" x="0" y="0" width="14" height="14" rx="3.5"></rect>
        <linearGradient x1="50%" y1="0%" x2="50%" y2="97.0714415%" id="linearGradient-3">
            <stop stop-color="#3F4549" offset="0%"></stop>
            <stop stop-color="#0F1315" offset="100%"></stop>
        </linearGradient>
        <rect id="path-4" x="0" y="0" width="14" height="14" rx="3.5"></rect>
    </defs>
    <g id="14-x-14-/-dark-outline" stroke="none" stroke-width="1" fill="none" fill-rule="evenodd">
        <g id="Icon-Artboard">
            <mask id="mask-2" fill="white">
                <use xlink:href="#path-1"></use>
            </mask>
            <g id="Mask"></g>
            <g mask="url(#mask-2)">
                <g id="BG-style-/-Dark-grey" fill="url(#linearGradient-3)">
                    <rect id="BG" x="0" y="0" width="14" height="14"></rect>
                </g>
                <g id="Users" stroke-width="1" transform="translate(2.679688, 2.666016)">
                    <path d="M1.18362442,1.18380282 C2.7617903,-0.39436286 5.91764594,-0.394839004 7.49628797,1.18380282 C9.07493,2.76244465 9.11491965,5.87783408 7.49628797,7.49646555 C5.87765629,9.11509702 2.7617903,9.07463123 1.18362442,7.49646555 C-0.394541472,5.91829987 -0.394541472,2.7619685 1.18362442,1.18380282 Z" id="Rectangle-path" fill="#999999" fill-rule="nonzero"></path>
                    <path d="M1.36868286,7.65432739 C1.23020172,7.34911346 1.8332889,7.13881915 2.19826168,7.01416976 L3.19382275,6.67506696 C3.34645633,6.63671957 3.44744652,6.49206841 3.43057204,6.33596415 C3.43057204,6.17852357 3.43057204,6.02713839 3.43057204,5.87575321 C3.43571434,5.7767232 3.40319451,5.67940618 3.33951462,5.60325988 C3.17227859,5.39052115 3.06348442,5.13799465 3.02384891,4.87055561 C3.01387494,4.73803814 2.97885986,4.60859888 2.92065051,4.48906496 C2.81438666,4.30241937 2.74629704,4.0966 2.72032419,3.88352424 C2.69609117,3.80665964 2.69609117,3.72422795 2.72032419,3.64736336 C2.74445975,3.56223875 2.74445975,3.47210545 2.72032419,3.38698085 C2.72032419,3.30220515 2.72032419,3.21137404 2.72032419,3.12659834 C2.69612653,2.97414418 2.69612653,2.81884155 2.72032419,2.66638739 C2.81304031,2.09595701 3.23837215,1.63592878 3.80087219,1.4976938 C4.07994779,1.42470949 4.37020348,1.40417514 4.6568119,1.43713973 C5.241751,1.48713121 5.7453173,1.86917343 5.94982721,2.41811569 C6.02218409,2.63029759 6.04094996,2.8570083 6.00446166,3.07815508 C5.94645405,3.27585506 5.94645405,3.48599582 6.00446166,3.6836958 C6.01031046,3.73196339 6.01031046,3.78075798 6.00446166,3.82902557 C5.98807961,4.04002387 5.93032957,4.24576142 5.83448781,4.43456629 C5.77248441,4.54364767 5.72938544,4.66238707 5.70700743,4.78577991 C5.67961368,5.06799841 5.57689952,5.3377371 5.40955321,5.56692744 C5.32668726,5.65806425 5.28118562,5.77693903 5.28207282,5.89997484 C5.26987436,6.07132896 5.26987436,6.24333033 5.28207282,6.41468445 C5.28391962,6.51888766 5.34518852,6.61291323 5.43990568,6.65690074 C5.53137195,6.70208031 5.62689747,6.73857363 5.72521891,6.76589807 C6.24485389,6.93701974 7.27696228,6.99711609 7.41368103,7.45747375 C7.55039978,7.91783142 5.7311617,8.68158722 4.3775053,8.68158722 C3.02384891,8.68158722 1.507164,7.95954132 1.36868286,7.65432739 Z" id="Shape" fill="#FFFFFF" fill-rule="nonzero"></path>
                </g>
            </g>
            <mask id="mask-5" fill="white">
                <use xlink:href="#path-4"></use>
            </mask>
            <rect stroke-opacity="0.2" stroke="#000000" x="0.5" y="0.5" width="13" height="13" rx="3.5"></rect>
        </g>
    </g>
</svg>